<?xml version="1.0" standalone="no"?><!DOCTYPE svg PUBLIC "-//W3C//DTD SVG 1.1//EN" "http://www.w3.org/Graphics/SVG/1.1/DTD/svg11.dtd"><svg t="1693146344799" class="icon" viewBox="0 0 1024 1024" version="1.1" xmlns="http://www.w3.org/2000/svg" p-id="7468" xmlns:xlink="http://www.w3.org/1999/xlink" width="200" height="200"><path d="M512 16C238 16 16 238 16 512s222 496 496 496 496-222 496-496S786 16 512 16z m243.6 339.8l-81.4 383.6c-6 27.2-22.2 33.8-44.8 21l-124-91.4-59.8 57.6c-6.6 6.6-12.2 12.2-25 12.2l8.8-126.2 229.8-207.6c10-8.8-2.2-13.8-15.4-5l-284 178.8-122.4-38.2c-26.6-8.4-27.2-26.6 5.6-39.4l478.2-184.4c22.2-8 41.6 5.4 34.4 39z" p-id="7469"></path></svg>