<?xml version="1.0" standalone="no"?>
<!DOCTYPE svg PUBLIC "-//W3C//DTD SVG 20010904//EN"
 "http://www.w3.org/TR/2001/REC-SVG-20010904/DTD/svg10.dtd">
<svg version="1.0" xmlns="http://www.w3.org/2000/svg"
 width="512.000000pt" height="512.000000pt" viewBox="0 0 512.000000 512.000000"
 preserveAspectRatio="xMidYMid meet">
<metadata>
Created by potrace 1.14, written by Peter Selinger 2001-2017
</metadata>
<g transform="translate(0.000000,512.000000) scale(0.100000,-0.100000)"
fill="#000000" stroke="none">
<path d="M1018 5115 c-2 -2 -28 -5 -58 -8 -224 -24 -475 -149 -643 -322 -61
-62 -148 -183 -189 -260 -38 -73 -92 -224 -103 -285 -3 -19 -9 -55 -13 -80 -9
-58 -9 -3125 0 -3206 42 -373 302 -713 658 -862 30 -13 64 -27 75 -32 24 -10
86 -25 175 -43 88 -18 3229 -17 3300 0 25 7 56 14 70 16 53 10 188 61 250 95
307 168 511 454 563 793 11 69 13 392 12 1665 -1 1420 -3 1586 -18 1649 -106
458 -425 774 -872 866 -46 9 -432 13 -1632 14 -865 1 -1574 1 -1575 0z m808
-1544 c10 -1 36 -93 51 -176 2 -11 12 -57 23 -102 11 -46 22 -93 24 -105 7
-32 29 -133 61 -273 15 -66 29 -128 31 -138 2 -10 5 -26 8 -35 3 -9 8 -28 10
-42 21 -99 124 -548 134 -584 7 -25 10 -16 26 65 9 52 24 119 31 149 8 30 17
71 20 90 3 19 10 51 15 70 5 19 11 49 14 65 3 17 19 95 36 175 17 80 34 156
36 170 3 14 7 33 10 42 3 9 7 27 9 40 3 13 9 46 15 73 6 28 12 59 14 70 2 11
22 104 45 208 23 103 41 196 41 207 0 10 6 22 12 26 16 10 288 12 288 2 0 -4
-34 -163 -76 -355 -41 -191 -77 -355 -78 -363 -2 -8 -7 -33 -11 -55 -5 -22 -9
-42 -10 -45 -2 -6 -24 -108 -29 -135 -3 -11 -19 -85 -36 -165 -17 -80 -34
-156 -36 -169 -3 -13 -20 -94 -39 -180 -19 -86 -37 -169 -40 -186 -3 -16 -22
-106 -43 -200 l-37 -170 -363 0 c-200 0 -370 2 -378 5 -9 3 -15 10 -14 15 0 6
-16 78 -36 160 -20 83 -37 157 -39 165 -2 8 -8 35 -15 60 -7 25 -13 52 -15 60
-2 8 -13 56 -25 105 -12 50 -23 97 -25 105 -2 8 -26 110 -55 225 -28 116 -64
266 -81 335 -16 69 -34 141 -39 160 -5 19 -11 44 -13 55 -2 14 -7 8 -14 -20
-11 -40 -99 -454 -109 -509 -2 -15 -11 -56 -19 -90 -8 -33 -16 -72 -19 -86 -3
-14 -21 -101 -41 -195 -20 -93 -39 -181 -41 -195 -3 -14 -14 -63 -25 -110 -11
-47 -22 -100 -25 -119 -7 -40 -10 -56 -22 -96 l-8 -30 -135 0 c-74 -1 -137 0
-140 2 -4 2 -2 22 3 45 5 24 11 54 13 68 3 14 7 34 9 45 6 24 65 298 142 660
30 143 61 289 69 325 8 36 29 133 46 215 17 83 33 159 35 170 4 18 19 90 30
141 37 187 76 349 83 354 8 4 701 6 747 1z m2647 0 c5 -1 6 -9 3 -18 -3 -10
-7 -29 -10 -43 -3 -14 -10 -43 -15 -65 -6 -22 -10 -40 -10 -40 1 0 -2 -16 -6
-35 l-6 -36 -321 1 c-176 0 -324 -3 -330 -6 -8 -5 -26 -77 -52 -214 -3 -11 -9
-40 -15 -65 -5 -25 -12 -56 -15 -70 -2 -14 -14 -68 -25 -120 -12 -52 -21 -99
-21 -105 0 -7 88 -10 270 -10 149 1 270 -2 270 -5 0 -12 -31 -168 -41 -202
l-10 -38 -269 0 c-148 0 -271 -3 -274 -8 -2 -4 -25 -106 -51 -227 -26 -121
-49 -229 -51 -240 -3 -11 -7 -33 -10 -50 -3 -16 -9 -46 -14 -65 -15 -56 -73
-334 -73 -347 0 -17 30 -15 -359 -17 -296 -1 -337 1 -333 14 3 8 9 38 14 65 6
28 26 122 45 211 19 88 37 171 40 185 2 13 10 49 16 79 6 30 14 66 16 80 3 14
19 86 35 160 16 74 31 144 33 155 3 11 16 74 30 140 14 66 27 131 30 145 3 14
7 34 10 45 2 11 32 151 66 310 82 390 91 429 100 435 7 4 1304 5 1333 1z"/>
</g>
</svg>
