<svg xmlns="http://www.w3.org/2000/svg" width="1000" height="328.483" viewBox="0 0 1000 328.483"><path fill-rule="evenodd" d="M 157.178 102.503 L 106.249 102.503 C 88.379 102.503 79.393 107.315 79.393 107.315 L 79.393 0 L 0 0 L 0 328.483 L 79.393 328.483 L 79.393 195.939 C 79.393 184.214 88.937 174.72 100.679 174.72 L 146.897 174.72 C 158.657 174.72 168.167 184.214 168.167 195.939 L 168.167 328.483 L 247.594 328.483 L 247.594 185.674 C 247.594 125.611 207.453 102.503 157.178 102.503 Z M 920.572 102.503 L 920.572 235.029 C 920.572 246.773 911.063 256.266 899.304 256.266 L 853.103 256.266 C 841.343 256.266 831.833 246.773 831.833 235.029 L 831.833 102.503 L 752.39 102.503 L 752.39 241.648 C 752.39 298.525 788.883 328.483 842.82 328.483 L 920.589 328.483 L 920.589 328.071 C 970.271 328.071 1000 292.825 1000 241.648 L 1000 102.503 L 920.572 102.503 Z M 472.572 235.029 C 472.572 246.773 463.046 256.266 451.286 256.266 L 405.068 256.266 C 393.308 256.266 383.799 246.773 383.799 235.029 L 383.799 102.503 L 304.371 102.503 L 304.371 241.648 C 304.371 298.525 340.867 328.483 394.803 328.483 L 472.572 328.483 L 472.572 328.071 C 522.255 328.071 551.999 292.825 551.999 241.648 L 551.999 102.503 L 472.572 102.503 L 472.572 235.029 Z M 612.522 328.483 L 691.965 328.483 L 691.965 0 L 612.522 0 L 612.522 328.483 Z" style="fill:#1ce783"/></svg>