<?xml version="1.0" standalone="no"?>
<!DOCTYPE svg PUBLIC "-//W3C//DTD SVG 20010904//EN"
 "http://www.w3.org/TR/2001/REC-SVG-20010904/DTD/svg10.dtd">
<svg version="1.0" xmlns="http://www.w3.org/2000/svg"
 width="400.000000pt" height="400.000000pt" viewBox="0 0 400.000000 400.000000"
 preserveAspectRatio="xMidYMid meet">
<metadata>
Created by potrace 1.14, written by Peter Selinger 2001-2017
</metadata>
<g transform="translate(0.000000,400.000000) scale(0.100000,-0.100000)"
fill="#000000" stroke="none">
<path d="M681 3954 c-103 -117 -205 -301 -248 -449 -94 -320 -105 -382 -93
-503 23 -217 56 -364 125 -552 26 -69 60 -165 77 -215 16 -49 59 -160 95 -245
86 -204 123 -304 134 -365 9 -49 0 -184 -22 -340 -9 -60 -39 -395 -39 -433 0
-7 -5 -10 -11 -6 -9 5 -10 -7 -6 -42 4 -33 3 -41 -3 -24 -5 17 -8 19 -9 8 -1
-10 -6 -18 -12 -18 -7 0 -9 10 -5 27 5 21 4 24 -4 13 -7 -11 -10 -11 -10 -2 0
7 -5 10 -11 7 -6 -4 -20 1 -32 12 -12 10 -30 25 -40 32 -15 12 -17 12 -11 -3
8 -20 6 -20 -81 -1 -38 8 -71 12 -73 10 -2 -2 -16 7 -30 21 -15 13 -34 24 -42
24 -9 0 -25 7 -36 15 -22 17 -54 20 -54 5 0 -5 -4 -10 -10 -10 -19 0 -10 32
10 37 12 3 18 11 15 17 -3 6 -8 18 -11 27 -5 15 -9 15 -32 3 -15 -8 -51 -14
-79 -14 -46 0 -53 3 -53 19 0 11 8 22 17 24 14 4 13 5 -4 6 -13 1 -23 -6 -26
-16 -2 -10 -2 9 1 42 5 64 -6 69 -18 8 l-8 -38 -1 43 c0 23 -5 42 -9 42 -11 0
-32 -611 -32 -897 l0 -223 380 0 c355 0 380 1 380 18 0 9 -7 53 -16 97 -12 61
-16 147 -17 360 -2 282 9 458 53 885 42 413 51 961 21 1355 -5 66 -10 247 -10
403 -1 186 -4 281 -11 277 -15 -9 -12 -382 5 -650 15 -233 19 -856 6 -990 -8
-82 -4 -87 -77 100 -25 66 -55 136 -65 156 -23 47 -84 205 -111 289 -11 36
-24 70 -28 75 -10 13 -74 211 -94 290 -30 120 -57 312 -59 410 -1 91 3 114 47
265 57 198 67 228 99 302 41 92 101 188 167 266 68 82 79 122 11 46z m-501
-2998 c0 -3 -4 -8 -10 -11 -5 -3 -10 -1 -10 4 0 6 5 11 10 11 6 0 10 -2 10 -4z"/>
<path d="M1263 3984 c-24 -64 109 -71 167 -9 l23 25 -92 0 c-76 0 -93 -3 -98
-16z"/>
<path d="M1975 3918 c-96 -114 -122 -154 -150 -239 -26 -77 -33 -119 -14 -86
9 16 13 15 52 -12 97 -67 328 -335 454 -527 13 -19 -21 78 -51 149 -12 28 -13
37 -4 37 25 -1 249 -205 299 -274 35 -47 35 -38 5 82 -12 50 -19 92 -15 92 13
0 110 -113 127 -147 34 -71 47 -24 39 146 -3 69 -9 134 -12 144 -4 9 -3 17 2
17 5 0 22 -33 36 -72 l27 -73 -6 60 c-3 33 -23 114 -45 179 -22 65 -37 121
-34 124 3 3 6 3 8 1 9 -11 95 -163 134 -234 23 -44 43 -75 43 -68 1 39 -49
180 -108 303 -17 36 -43 94 -57 130 -14 36 -29 71 -32 79 -10 22 30 -3 110
-71 104 -88 177 -160 177 -175 0 -7 6 -13 13 -13 14 0 63 -62 123 -155 21 -33
40 -62 41 -64 2 -2 5 -2 9 1 3 3 -4 41 -15 84 -10 44 -18 80 -16 82 6 6 88
-101 138 -180 43 -69 56 -99 66 -159 19 -115 49 -220 112 -395 76 -210 84
-247 70 -332 -25 -144 -84 -272 -220 -477 -189 -284 -250 -316 -611 -318 -139
0 -194 -3 -155 -8 33 -4 103 -7 156 -8 l97 -1 7 -97 c12 -163 32 -262 65 -316
35 -57 35 -57 11 -57 -11 0 -28 14 -40 34 -43 68 -135 136 -185 136 -20 0 -66
40 -205 182 -99 101 -178 184 -176 186 2 2 44 -21 94 -52 100 -62 179 -101
187 -93 3 3 -15 22 -40 43 -25 20 -43 41 -40 45 3 5 -6 11 -19 14 -25 7 -86
67 -218 215 -86 97 -264 329 -257 336 3 2 29 0 58 -6 29 -5 76 -10 104 -9 l51
0 -40 13 c-22 7 -70 27 -106 45 -60 30 -71 40 -119 113 -29 45 -62 102 -75
129 -12 26 -27 55 -34 62 -6 8 -27 47 -47 87 l-35 73 5 116 c4 94 3 103 -4 51
-14 -101 -39 -559 -46 -830 -6 -216 -4 -266 15 -420 25 -198 42 -246 102 -290
21 -15 65 -38 96 -50 32 -13 61 -26 66 -30 4 -3 -24 -14 -62 -24 -75 -20 -80
-19 -160 39 -19 14 -43 23 -55 21 -11 -3 -50 -10 -86 -16 -36 -7 -100 -28
-142 -47 -42 -20 -84 -33 -93 -30 -8 4 -20 19 -26 34 -5 16 -19 46 -30 69 -11
23 -19 62 -19 90 0 27 -5 92 -11 144 -20 189 -44 483 -59 715 -5 88 -14 232
-20 319 -11 152 -10 162 10 220 12 34 25 68 30 77 17 33 32 140 28 201 -5 72
-24 119 -70 168 l-32 35 -7 -30 c-11 -51 -10 -182 6 -410 8 -121 17 -238 20
-260 3 -22 12 -161 20 -310 9 -148 22 -346 30 -440 8 -93 22 -276 30 -405 27
-428 38 -538 79 -840 14 -102 30 -243 36 -315 13 -155 17 -175 37 -175 12 0
14 8 9 33 -3 17 -12 97 -21 177 -8 80 -25 209 -37 288 -21 142 -21 144 -3 180
88 170 224 312 370 385 186 93 361 115 530 66 116 -34 226 -88 310 -154 101
-80 326 -302 430 -425 44 -52 82 -97 85 -100 4 -3 33 -41 66 -85 70 -95 93
-121 68 -80 -17 30 -155 214 -201 269 -13 16 -22 30 -20 32 5 5 97 -46 128
-71 14 -11 32 -31 42 -45 l17 -24 0 24 c0 14 -9 45 -20 69 -11 24 -19 45 -17
47 1 2 20 -1 42 -6 61 -14 73 -12 40 9 -40 25 -77 66 -106 119 l-24 44 23 18
c12 10 22 28 22 41 0 20 1 21 18 6 23 -21 184 -119 188 -114 2 2 -22 18 -54
37 -31 19 -81 52 -109 73 -46 34 -53 44 -53 73 0 37 13 42 45 18 11 -8 48 -23
82 -34 77 -24 103 -37 103 -53 0 -41 59 -130 143 -217 87 -90 173 -189 313
-360 34 -41 92 -104 128 -140 l66 -64 0 136 c0 82 -4 139 -10 143 -6 4 -8 11
-4 16 8 14 -7 119 -17 119 -5 0 -15 -11 -21 -25 -6 -14 -17 -25 -24 -25 -7 0
-15 -8 -17 -18 -4 -13 -5 -11 -6 6 0 12 -5 22 -10 22 -4 0 -14 21 -21 48 -7
26 -19 57 -27 70 -8 12 -11 27 -8 32 3 6 1 10 -4 10 -6 0 -11 11 -11 25 0 14
-4 25 -10 25 -5 0 -10 4 -10 10 0 22 -52 118 -83 152 -40 45 -155 101 -245
119 -58 12 -65 17 -83 51 -10 20 -19 48 -19 61 0 33 127 144 210 182 167 77
273 165 316 263 61 138 55 269 -28 656 -36 164 -31 92 6 -106 48 -254 56 -328
45 -402 -26 -164 -96 -256 -271 -355 -99 -56 -253 -101 -198 -58 45 36 134
199 160 296 16 62 30 40 30 -50 0 -47 4 -78 9 -74 17 10 73 168 108 305 31
121 35 155 43 335 4 115 4 227 -1 264 -13 90 -5 92 27 6 4 -11 6 -27 5 -35 -1
-12 0 -12 7 -2 7 10 16 2 36 -31 14 -25 26 -52 26 -59 1 -7 8 -24 16 -38 15
-24 15 -23 10 28 -8 79 -51 214 -106 327 -48 100 -100 297 -100 380 l0 35 140
0 140 0 0 105 0 105 -48 0 c-26 0 -57 7 -69 15 -18 13 -22 13 -33 0 -16 -19
-143 -21 -158 -2 -5 6 -15 46 -22 87 -18 111 -59 287 -79 344 -10 28 -22 60
-26 71 -14 41 93 -88 143 -172 29 -49 52 -85 52 -82 0 4 -12 42 -26 84 -31 93
-108 238 -167 313 -23 30 -52 69 -64 86 -11 17 -48 59 -80 93 l-59 63 -659 6
-660 6 -70 -84z m415 -50 c21 -34 27 -78 11 -78 -16 0 -71 70 -71 90 0 32 38
24 60 -12z m-165 -118 c10 -11 16 -20 13 -20 -3 0 -13 9 -23 20 -10 11 -16 20
-13 20 3 0 13 -9 23 -20z m-1068 -702 c-3 -8 -6 -5 -6 6 -1 11 2 17 5 13 3 -3
4 -12 1 -19z m1143 -1780 c41 -11 99 -25 128 -31 28 -6 52 -13 52 -17 0 -7
-61 -33 -157 -67 -60 -21 -82 -5 -110 81 -19 60 -20 67 -5 61 9 -4 51 -16 92
-27z m1148 -126 c-5 -14 -85 -82 -95 -82 -9 0 -37 50 -31 55 5 5 102 34 116
34 8 1 12 -3 10 -7z m-496 -113 c36 -18 72 -59 98 -107 16 -32 9 -35 -36 -18
-22 8 -57 17 -78 20 -22 3 -43 9 -48 14 -12 12 -47 110 -41 115 8 9 67 -5 105
-24z m141 -58 c18 -31 23 -101 7 -101 -11 0 -50 85 -50 111 0 28 23 23 43 -10z
m295 -66 c10 -22 9 -25 -8 -25 -15 0 -20 7 -20 25 0 14 4 25 8 25 5 0 14 -11
20 -25z m-577 -24 c4 -3 16 -37 28 -76 12 -38 25 -77 28 -85 3 -8 -28 17 -68
57 -41 39 -87 83 -104 97 l-30 25 70 -6 c39 -3 73 -8 76 -12z m252 -18 c29
-15 32 -20 17 -43 -6 -10 -4 -20 7 -32 15 -17 15 -18 0 -18 -9 0 -23 13 -31
29 -9 16 -28 43 -43 61 l-27 33 25 -8 c13 -4 36 -14 52 -22z m-1662 -35 c-12
-18 -34 -55 -48 -83 l-27 -50 -8 70 c-4 39 -4 73 0 77 8 7 44 14 80 17 l24 1
-21 -32z m2223 -11 c81 -44 109 -83 168 -233 48 -125 121 -361 115 -377 -1 -4
-26 23 -55 62 -30 38 -69 85 -88 103 -29 29 -34 39 -34 83 0 28 -4 66 -10 84
-5 19 -8 36 -6 38 1 2 19 -20 39 -47 41 -59 55 -51 32 17 -40 119 -113 216
-204 275 -61 38 -30 35 43 -5z"/>
<path d="M3426 3967 c3 -10 9 -15 12 -12 3 3 0 11 -7 18 -10 9 -11 8 -5 -6z"/>
<path d="M1781 3533 c-29 -112 -62 -408 -59 -532 1 -42 3 -59 5 -38 5 46 15
47 35 5 9 -18 43 -67 77 -108 33 -41 61 -77 61 -80 0 -3 -16 -46 -36 -95 -25
-62 -38 -112 -41 -161 -5 -68 -4 -74 23 -110 29 -37 99 -94 116 -94 5 0 1 15
-10 33 -17 26 -52 126 -52 146 0 14 19 -19 29 -51 15 -46 87 -113 137 -127 46
-13 101 -13 129 -1 18 8 17 9 -6 9 -32 1 -83 63 -85 104 -1 15 -1 27 1 27 1 0
16 -7 34 -16 29 -14 34 -14 56 0 14 10 27 30 31 51 7 39 14 43 36 18 30 -34
46 -77 37 -100 -6 -16 -5 -21 5 -17 6 2 20 29 30 58 33 97 2 202 -84 279 -74
66 -156 84 -217 47 -40 -24 -41 -28 -5 -22 37 5 66 -22 57 -52 -4 -12 -7 -30
-7 -41 0 -44 -9 -65 -28 -65 -12 0 -20 7 -20 16 0 11 -5 14 -17 9 -62 -25 -72
-11 -53 70 16 68 56 108 133 135 62 22 121 26 161 10 29 -10 35 0 11 20 -8 7
-15 18 -15 26 0 21 -66 34 -121 24 -59 -11 -98 -30 -166 -81 l-53 -39 -16 37
c-9 21 -20 49 -26 63 -6 14 -16 66 -24 115 -7 50 -20 137 -29 195 -9 58 -17
165 -18 237 -1 73 -3 133 -4 133 -1 0 -7 -17 -12 -37z m409 -991 c0 -5 -11
-18 -23 -31 -19 -17 -29 -20 -48 -12 -17 7 -19 10 -6 10 9 1 17 7 17 15 0 13
9 17 53 25 4 0 7 -3 7 -7z"/>
<path d="M2968 3220 c-30 -18 -59 -76 -52 -104 6 -24 24 -37 24 -17 0 5 13 23
29 40 36 38 83 41 148 10 68 -33 147 -142 168 -233 l12 -51 8 39 c9 46 0 143
-17 182 -17 40 -84 101 -137 125 -47 21 -153 26 -183 9z"/>
<path d="M3005 3150 c-3 -5 1 -10 9 -10 19 0 29 -31 21 -63 -4 -14 -2 -28 4
-31 16 -10 14 -36 -3 -36 -8 0 -17 7 -20 16 -3 8 -11 12 -17 9 -5 -4 -20 1
-31 12 l-21 18 5 -71 c4 -49 13 -88 32 -127 31 -62 87 -132 119 -148 17 -8 15
-5 -6 14 -16 15 -30 40 -34 60 -5 33 -4 34 20 30 21 -4 29 1 46 33 19 36 21
37 27 17 3 -13 10 -23 15 -23 10 0 34 -79 30 -99 -2 -13 0 -13 13 -2 63 52 26
259 -61 344 -23 22 -52 47 -65 54 -28 15 -74 17 -83 3z m93 -257 c-3 -15 -23
-20 -55 -14 -9 2 38 30 50 31 5 0 7 -8 5 -17z"/>
<path d="M320 966 c0 -14 29 -26 63 -26 10 0 17 8 17 20 0 18 -2 19 -20 8 -16
-10 -24 -10 -40 0 -16 10 -20 10 -20 -2z"/>
<path d="M3191 707 c2 -2 20 -14 39 -26 l35 -23 -30 26 c-16 14 -34 26 -39 26
-5 0 -7 -1 -5 -3z"/>
<path d="M3270 651 c0 -6 4 -13 10 -16 6 -3 7 1 4 9 -7 18 -14 21 -14 7z"/>
<path d="M2322 608 c7 -21 186 -145 268 -187 283 -143 340 -170 377 -180 54
-15 236 -38 348 -45 82 -5 85 -4 30 5 -33 5 -67 13 -75 17 -8 5 -35 9 -60 10
-43 2 -190 66 -190 84 0 4 -4 8 -9 8 -6 0 -63 32 -128 70 -65 39 -163 93 -218
120 -163 80 -355 135 -343 98z"/>
<path d="M3880 478 c0 -19 2 -20 10 -8 13 19 13 30 0 30 -5 0 -10 -10 -10 -22z"/>
<path d="M3906 483 c-6 -14 -5 -15 5 -6 7 7 10 15 7 18 -3 3 -9 -2 -12 -12z"/>
<path d="M3891 434 c0 -11 3 -14 6 -6 3 7 2 16 -1 19 -3 4 -6 -2 -5 -13z"/>
<path d="M3912 430 c0 -14 2 -19 5 -12 2 6 2 18 0 25 -3 6 -5 1 -5 -13z"/>
<path d="M3476 370 c4 -8 28 -36 52 -62 52 -54 161 -198 162 -212 0 -6 -15 4
-32 21 -39 36 -61 48 -105 56 -48 9 -40 1 17 -18 40 -13 63 -31 112 -86 35
-39 70 -69 81 -69 16 0 13 8 -19 52 -79 112 -289 360 -268 318z"/>
<path d="M3423 183 c9 -2 25 -2 35 0 9 3 1 5 -18 5 -19 0 -27 -2 -17 -5z"/>
<path d="M3840 90 c6 -11 13 -20 16 -20 2 0 0 9 -6 20 -6 11 -13 20 -16 20 -2
0 0 -9 6 -20z"/>
<path d="M3870 52 c0 -5 12 -19 27 -33 l26 -24 -23 33 c-25 33 -30 38 -30 24z"/>
<path d="M3817 43 c-4 -3 -7 -15 -7 -25 0 -13 8 -18 30 -18 31 0 39 17 18 38
-13 13 -31 16 -41 5z"/>
</g>
</svg>
